#!OML:ASF H:\Swim 2\Project 1\Capture day 1\Session 1\male.ASF
:FULLY-SPECIFIED
:DEGREES
1019
root 0.684509 14.9361 8.79437 108.394 21.4657 9.98327
lowerback -12.6659 1.24504 13.0628
upperback -10.3606 0.523033 -16.0509
thorax -3.47962 -0.92545 -26.9922
lowerneck -11.3828 0.697138 1.73938
upperneck 21.6854 1.89697 -4.89546
head 8.6977 0.588627 -1.73345
rclavicle -2.3059e-014 3.47873e-014
rhumerus 9.41737 -24.0537 6.18445
rradius 55.4831
rwrist -35.4816
rhand 11.6119 4.46186
rfingers 7.12502
rthumb 36.6535 -21.6914
lclavicle -2.3059e-014 3.47873e-014
lhumerus -651.187 -3.33631 719.659
lradius 38.0337
lwrist 56.0341
lhand -29.317 -5.89652
lfingers 7.12502
lthumb -2.65781 24.0667
rfemur -51.1466 6.12642 22.2517
rtibia 52.976
rfoot 38.2092 7.81791
rtoes 25.4607
lfemur -56.2617 7.21934 -22.8381
ltibia 45.8459
lfoot -19.2082 18.1308
ltoes -17.2379
1020
root 0.676776 14.9571 8.80694 108.201 21.0006 9.07891
lowerback -12.7748 1.63321 12.7202
upperback -10.3412 1.1111 -16.1593
thorax -3.06778 -0.515008 -26.7674
lowerneck -11.4344 0.547117 2.52031
upperneck 21.4021 1.63254 -5.42773
head 8.6087 0.476284 -2.07122
rclavicle 3.18055e-015 7.90169e-014
rhumerus 12.2647 -25.0648 6.32148
rradius 53.7145
rwrist -34.9316
rhand 11.0686 4.67824
rfingers 7.12502
rthumb 36.1392 -21.604
lclavicle 3.18055e-015 7.90169e-014
lhumerus -651.564 -3.74839 719.645
lradius 39.098
lwrist 55.7746
lhand -28.8262 -6.25436
lfingers 7.12502
lthumb -2.18382 23.7142
rfemur -50.9709 6.24223 21.7673
rtibia 54.2141
rfoot 39.3793 8.12331
rtoes 25.4206
lfemur -56.2501 6.06779 -22.3101
ltibia 44.2743
lfoot -19.3915 19.0677
ltoes -17.2565
1021
root 0.668074 14.9752 8.8172 107.954 20.5683 7.99619
lowerback -12.8912 2.02933 12.4059
upperback -10.3401 1.70316 -16.2517
thorax -2.67736 -0.111435 -26.5309
lowerneck -11.4843 0.426605 3.32639
upperneck 21.104 1.3923 -5.92697
head 8.51188 0.378759 -2.3986
rclavicle 2.10712e-014 4.65156e-014
rhumerus 15.1418 -25.9903 6.27658
rradius 52.048
rwrist -34.1771
rhand 10.5932 4.77261
rfingers 7.12502
rthumb 35.6887 -21.6198
lclavicle 2.10712e-014 4.65156e-014
lhumerus -652.159 -4.12455 719.21
lradius 40.4011
lwrist 55.5066
lhand -28.5908 -6.50827
lfingers 7.12502
lthumb -1.9565 23.4625
rfemur -50.8953 6.44135 21.2964
rtibia 55.3471
rfoot 40.7065 8.53404
rtoes 25.194
lfemur -56.1097 4.68287 -21.4128
ltibia 42.9499
lfoot -19.5377 19.9736
ltoes -17.1651
1022
root 0.657526 14.9897 8.82531 107.662 20.1952 6.74635
lowerback -13.0102 2.43103 12.1441
upperback -10.3566 2.29347 -16.3207
thorax -2.31303 0.280279 -26.2914
lowerneck -11.5293 0.333656 4.12859
upperneck 20.7815 1.17122 -6.35661
head 8.40371 0.294874 -2.69858
rclavicle -3.57812e-014 -9.16397e-014
rhumerus 18.0175 -26.8574 6.07256
rradius 50.5109
rwrist -33.288
rhand 10.2266 4.78557
rfingers 7.12502
rthumb 35.3412 -21.6901
lclavicle -3.57812e-014 -9.16397e-014
lhumerus -653.029 -4.46588 718.234
lradius 42.0077
lwrist 55.2508
lhand -28.7334 -6.63742
lfingers 7.12502
lthumb -2.09428 23.332
rfemur -50.9191 6.73406 20.8722
rtibia 56.3324
rfoot 42.1588 8.99121
rtoes 24.9798
lfemur -55.9024 3.268 -20.2955
ltibia 41.929
lfoot -19.5999 20.7635
ltoes -17.0832
1023
root 0.644346 15.0001 8.82977 107.349 19.8904 5.35558
lowerback -13.1359 2.83115 11.9555
upperback -10.3941 2.86892 -16.3648
thorax -1.98155 0.650829 -26.066
lowerneck -11.5578 0.276257 4.97236
upperneck 20.4156 0.97908 -6.75377
head 8.27752 0.228986 -2.98993
rclavicle 2.22639e-014 -2.13495e-013
rhumerus 20.8809 -27.6943 5.71601
rradius 49.1061
rwrist -32.3629
rhand 10.0174 4.75545
rfingers 7.12502
rthumb 35.1429 -21.7671
lclavicle 2.22639e-014 -2.13495e-013
lhumerus -654.195 -4.77713 716.791
lradius 43.9022
lwrist 54.9976
lhand -29.1656 -6.58911
lfingers 7.12502
lthumb -2.51169 23.3758
rfemur -51.0593 7.10343 20.5196
rtibia 57.1373
rfoot 43.6106 9.4498
rtoes 24.8707
lfemur -55.6938 2.06767 -19.1763
ltibia 41.2419
lfoot -19.5759 21.2379
ltoes -17.1983
